# xmcd CD database file
#
# Track frame offsets:
#	150
#	9568
#	18617
#	33468
#	55582
#	76909
#	100156
#	110230
#	122451
#	133401
#	170516
#	194843
#	215294
#	249594
#	263886
#	275980
#	284578
#	327792
#
# Disc length: 4557 seconds
#
# Revision: 2
# Processed by: cddbd v1.5.2PL0 Copyright (c) Steve Scherf et al.
# Submitted via: CDex 1.70beta2
#
DISCID=1411cb12
DTITLE=Ambra - Prism Of Life Disc
DYEAR=2007
DGENRE=New Age
TTITLE0=Caleidoskope Part 1
TTITLE1=Caleidoskope Part 2
TTITLE2=Prism Of Life
TTITLE3=Le Prisme De La Vie
TTITLE4=Wanderer Between The Worlds
TTITLE5=The Wheel Of Time Part 1
TTITLE6=The Wheel Of Time Part 2
TTITLE7=The Wheel Of Time Part 3
TTITLE8=Angels In The Desert
TTITLE9=Secret World Of Crystals
TTITLE10=Saă'le - The Prophecy
TTITLE11=Moments Of Redemption Part 1
TTITLE12=Moments Of Redemption Part 2
TTITLE13=Butterfly's Wings
TTITLE14=Les Ailles Du Papillon
TTITLE15=Saă'le - The Reprise
TTITLE16=Evolution
TTITLE17=Caleidoskope Part 3
EXTD=YEAR: 2007
EXTT0=
EXTT1=
EXTT2=
EXTT3=
EXTT4=
EXTT5=
EXTT6=
EXTT7=
EXTT8=
EXTT9=
EXTT10=
EXTT11=
EXTT12=
EXTT13=
EXTT14=
EXTT15=
EXTT16=
EXTT17=
PLAYORDER=
